<svg id="Ebene_1" data-name="Ebene 1" xmlns="http://www.w3.org/2000/svg" viewBox="0 0 50 50"><defs><style>.cls-1{fill:#fff;}</style></defs><path class="cls-1" d="M31.693,25,49.54,7.153a1.583,1.583,0,0,0,0-2.231L45.078.46a1.583,1.583,0,0,0-2.231,0L25,18.307,7.153.46a1.583,1.583,0,0,0-2.231,0L.46,4.922a1.583,1.583,0,0,0,0,2.231L18.307,25,.46,42.847a1.583,1.583,0,0,0,0,2.231L4.922,49.54a1.583,1.583,0,0,0,2.231,0L25,31.693,42.847,49.54a1.583,1.583,0,0,0,2.231,0l4.462-4.462a1.583,1.583,0,0,0,0-2.231Z" transform="translate(0 0)"/></svg>